<svg width="206" height="350" viewBox="0 0 206 350" fill="none" xmlns="http://www.w3.org/2000/svg">
<rect width="206" height="350" rx="2" fill="#E2C68B"/>
<rect x="7" y="97" width="193" height="245" fill="#47819B"/>
<rect x="16" y="107" width="176" height="226" fill="#ADD0E0"/>
<rect x="6" y="6" width="194" height="86" fill="#8B7A59"/>
<path d="M16 35L28 41.5V92H16V35Z" fill="#D4AA54"/>
<path d="M35 35L47 41.5V92H35V35Z" fill="#D4AA54"/>
<path d="M63 35L75 41.5V92H63V35Z" fill="#D4AA54"/>
<path d="M82 35L94 41.5V92H82V35Z" fill="#D4AA54"/>
<path d="M101 35L113 41.5V92H101V35Z" fill="#D4AA54"/>
<path d="M126 35L138 41.5V92H126V35Z" fill="#D4AA54"/>
<path d="M33 30C27.5 68 28.3513 40 22 40C15.5 43.5 11 35.732 11 28C11 20.268 15.6487 12 22 12C28.3513 12 33 22.268 33 30Z" fill="#94300F"/>
<path d="M18.956 21.9017C18.5858 24.9166 19.9822 27.5689 17.7895 27.2997C15.5968 27.0305 14.0796 24.6925 14.4498 21.6776C14.8199 18.6627 17.0445 16.9563 19.1514 16.2075C21.8156 15.0233 19.3262 18.8867 18.956 21.9017Z" fill="#D28765"/>
<path d="M151 35L163 41.5V92H151V35Z" fill="#D4AA54"/>
<path d="M176 35L188 41.5V92H176V35Z" fill="#D4AA54"/>
<path d="M79 30C73.5 68 74.3513 40 68 40C61.5 43.5 57 35.732 57 28C57 20.268 61.6487 12 68 12C74.3513 12 79 22.268 79 30Z" fill="#94300F"/>
<path d="M64.956 21.9017C64.5858 24.9166 65.9822 27.5689 63.7895 27.2997C61.5968 27.0305 60.0796 24.6925 60.4498 21.6776C60.8199 18.6627 63.0445 16.9563 65.1514 16.2075C67.8156 15.0233 65.3262 18.8867 64.956 21.9017Z" fill="#D28765"/>
<path d="M98 31C92.5 69 93.3513 41 87 41C80.5 44.5 76 36.732 76 29C76 21.268 80.6487 13 87 13C93.3513 13 98 23.268 98 31Z" fill="#94300F"/>
<path d="M83.956 22.9017C83.5858 25.9166 84.9822 28.5689 82.7895 28.2997C80.5968 28.0305 79.0796 25.6925 79.4498 22.6776C79.8199 19.6627 82.0445 17.9563 84.1514 17.2075C86.8156 16.0233 84.3262 19.8867 83.956 22.9017Z" fill="#D28765"/>
<path d="M142 29C136.5 67 137.351 39 131 39C124.5 42.5 120 34.732 120 27C120 19.268 124.649 11 131 11C137.351 11 142 21.268 142 29Z" fill="#94300F"/>
<path d="M127.956 20.9017C127.586 23.9166 128.982 26.5689 126.789 26.2997C124.597 26.0305 123.08 23.6925 123.45 20.6776C123.82 17.6627 126.044 15.9563 128.151 15.2075C130.816 14.0233 128.326 17.8867 127.956 20.9017Z" fill="#D28765"/>
<path d="M168 29C162.5 67 163.351 39 157 39C150.5 42.5 146 34.732 146 27C146 19.268 150.649 11 157 11C163.351 11 168 21.268 168 29Z" fill="#94300F"/>
<path d="M153.956 20.9017C153.586 23.9166 154.982 26.5689 152.789 26.2997C150.597 26.0305 149.08 23.6925 149.45 20.6776C149.82 17.6627 152.044 15.9563 154.151 15.2075C156.816 14.0233 154.326 17.8867 153.956 20.9017Z" fill="#D28765"/>
<path d="M192 29C186.5 67 187.351 39 181 39C174.5 42.5 170 34.732 170 27C170 19.268 174.649 11 181 11C187.351 11 192 21.268 192 29Z" fill="#94300F"/>
<path d="M177.956 20.9017C177.586 23.9166 178.982 26.5689 176.789 26.2997C174.597 26.0305 173.08 23.6925 173.45 20.6776C173.82 17.6627 176.044 15.9563 178.151 15.2075C180.816 14.0233 178.326 17.8867 177.956 20.9017Z" fill="#D28765"/>
<rect width="12" height="57" transform="translate(165 35)" fill="#FDDC71"/>
<g filter="url(#filter0_d)">
<path d="M165 35L177 41.5V92H165V35Z" fill="url(#paint0_linear)"/>
</g>
<rect width="12" height="57" transform="translate(145 35)" fill="#FDDC71"/>
<g filter="url(#filter1_d)">
<path d="M145 35L157 41.5V92H145V35Z" fill="url(#paint1_linear)"/>
</g>
<rect width="12" height="57" transform="translate(131 35)" fill="#FDDC71"/>
<g filter="url(#filter2_d)">
<path d="M131 35L143 41.5V92H131V35Z" fill="url(#paint2_linear)"/>
</g>
<rect width="12" height="57" transform="translate(108 35)" fill="#FDDC71"/>
<g filter="url(#filter3_d)">
<path d="M108 35L120 41.5V92H108V35Z" fill="url(#paint3_linear)"/>
</g>
<rect width="12" height="57" transform="translate(95 35)" fill="#FDDC71"/>
<g filter="url(#filter4_d)">
<path d="M95 35L107 41.5V92H95V35Z" fill="url(#paint4_linear)"/>
</g>
<rect width="12" height="57" transform="translate(72 35)" fill="#FDDC71"/>
<g filter="url(#filter5_d)">
<path d="M72 35L84 41.5V92H72V35Z" fill="url(#paint5_linear)"/>
</g>
<rect width="12" height="57" transform="translate(72 35)" fill="#FDDC71"/>
<g filter="url(#filter6_d)">
<path d="M72 35L84 41.5V92H72V35Z" fill="url(#paint6_linear)"/>
</g>
<rect width="12" height="57" transform="translate(53 35)" fill="#FDDC71"/>
<g filter="url(#filter7_d)">
<path d="M53 35L65 41.5V92H53V35Z" fill="url(#paint7_linear)"/>
</g>
<path d="M50 30C44.5 68 45.3513 40 39 40C32.5 43.5 28 35.732 28 28C28 20.268 32.6487 12 39 12C45.3513 12 50 22.268 50 30Z" fill="#94300F"/>
<path d="M35.956 21.9017C35.5858 24.9166 36.9822 27.5689 34.7895 27.2997C32.5968 27.0305 31.0796 24.6925 31.4498 21.6776C31.8199 18.6627 34.0445 16.9563 36.1514 16.2075C38.8156 15.0233 36.3262 18.8867 35.956 21.9017Z" fill="#D28765"/>
<rect width="12" height="57" transform="translate(39 35)" fill="#FDDC71"/>
<g filter="url(#filter8_d)">
<path d="M39 35L51 41.5V92H39V35Z" fill="url(#paint8_linear)"/>
</g>
<rect width="12" height="57" transform="translate(21 35)" fill="#FDDC71"/>
<g filter="url(#filter9_d)">
<path d="M21 35L33 41.5V92H21V35Z" fill="url(#paint9_linear)"/>
</g>
<g filter="url(#filter10_d)">
<path d="M56 30C50.5 57.5 51.3513 40 45 40C38.5 43.5 34 35.732 34 28C34 20.268 38.6487 12 45 12C51.3513 12 56 22.268 56 30Z" fill="#B6370E"/>
</g>
<path d="M41.956 21.9017C41.5858 24.9166 42.9822 27.5689 40.7895 27.2997C38.5968 27.0305 37.0796 24.6925 37.4498 21.6776C37.8199 18.6627 40.0445 16.9563 42.1514 16.2075C44.8156 15.0233 42.3262 18.8867 41.956 21.9017Z" fill="#D28765"/>
<g filter="url(#filter11_d)">
<path d="M70 30C64 58 65.3513 40 59 40C52.5 43.5 48 35.732 48 28C48 20.268 52.6487 12 59 12C65.3513 12 70 22.268 70 30Z" fill="#B6370E"/>
</g>
<path d="M55.956 21.9017C55.5858 24.9166 56.9822 27.5689 54.7895 27.2997C52.5968 27.0305 51.0796 24.6925 51.4498 21.6776C51.8199 18.6627 54.0445 16.9563 56.1514 16.2075C58.8156 15.0233 56.3262 18.8867 55.956 21.9017Z" fill="#D28765"/>
<g filter="url(#filter12_d)">
<path d="M148 30C142.5 58 143.351 40 137 40C130.5 43.5 126 35.732 126 28C126 20.268 130.649 12 137 12C143.351 12 148 22.268 148 30Z" fill="#B6370E"/>
</g>
<path d="M133.956 21.9017C133.586 24.9166 134.982 27.5689 132.789 27.2997C130.597 27.0305 129.08 24.6925 129.45 21.6776C129.82 18.6627 132.044 16.9563 134.151 16.2075C136.816 15.0233 134.326 18.8867 133.956 21.9017Z" fill="#D28765"/>
<g filter="url(#filter13_d)">
<path d="M181 29C175.5 57 176.351 39 170 39C163.5 42.5 159 34.732 159 27C159 19.268 163.649 11 170 11C176.351 11 181 21.268 181 29Z" fill="#B6370E"/>
</g>
<path d="M166.956 20.9017C166.586 23.9166 167.982 26.5689 165.789 26.2997C163.597 26.0305 162.08 23.6925 162.45 20.6776C162.82 17.6627 165.044 15.9563 167.151 15.2075C169.816 14.0233 167.326 17.8867 166.956 20.9017Z" fill="#D28765"/>
<g filter="url(#filter14_d)">
<path d="M89 30C83.5 58 84.3513 40 78 40C71.5 43.5 67 35.732 67 28C67 20.268 71.6487 12 78 12C84.3513 12 89 22.268 89 30Z" fill="#B6370E"/>
</g>
<path d="M74.956 21.9017C74.5858 24.9166 75.9822 27.5689 73.7895 27.2997C71.5968 27.0305 70.0796 24.6925 70.4498 21.6776C70.8199 18.6627 73.0445 16.9563 75.1514 16.2075C77.8156 15.0233 75.3262 18.8867 74.956 21.9017Z" fill="#D28765"/>
<g filter="url(#filter15_d)">
<path d="M162 29C156.5 57 157.351 39 151 39C144.5 42.5 140 34.732 140 27C140 19.268 144.649 11 151 11C157.351 11 162 21.268 162 29Z" fill="#B6370E"/>
</g>
<path d="M147.956 20.9017C147.586 23.9166 148.982 26.5689 146.789 26.2997C144.597 26.0305 143.08 23.6925 143.45 20.6776C143.82 17.6627 146.044 15.9563 148.151 15.2075C150.816 14.0233 148.326 17.8867 147.956 20.9017Z" fill="#D28765"/>
<g filter="url(#filter16_d)">
<path d="M111 30C105.5 58 106.351 40 100 40C93.5 43.5 89 35.732 89 28C89 20.268 93.6487 12 100 12C106.351 12 111 22.268 111 30Z" fill="#B6370E"/>
</g>
<path d="M96.956 21.9017C96.5858 24.9166 97.9822 27.5689 95.7895 27.2997C93.5968 27.0305 92.0796 24.6925 92.4498 21.6776C92.8199 18.6627 95.0445 16.9563 97.1514 16.2075C99.8156 15.0233 97.3262 18.8867 96.956 21.9017Z" fill="#D28765"/>
<g filter="url(#filter17_d)">
<path d="M125 30C119.5 58 120.351 40 114 40C107.5 43.5 103 35.732 103 28C103 20.268 107.649 12 114 12C120.351 12 125 22.268 125 30Z" fill="#B6370E"/>
</g>
<path d="M110.956 21.9017C110.586 24.9166 111.982 27.5689 109.789 27.2997C107.597 27.0305 106.08 24.6925 106.45 21.6776C106.82 18.6627 109.044 16.9563 111.151 16.2075C113.816 15.0233 111.326 18.8867 110.956 21.9017Z" fill="#D28765"/>
<g filter="url(#filter18_d)">
<path d="M39 30C32 57.5 34.3513 40 28 40C21.5 43.5 17 35.732 17 28C17 20.268 21.6487 12 28 12C34.3513 12 39 22.268 39 30Z" fill="#B6370E"/>
</g>
<path d="M24.956 21.9017C24.5858 24.9166 25.9822 27.5689 23.7895 27.2997C21.5968 27.0305 20.0796 24.6925 20.4498 21.6776C20.8199 18.6627 23.0445 16.9563 25.1514 16.2075C27.8156 15.0233 25.3262 18.8867 24.956 21.9017Z" fill="#D28765"/>
<mask id="path-55-inside-1" fill="white">
<rect width="206" height="97" rx="3"/>
</mask>
<rect width="206" height="97" rx="3" stroke="#E2C68B" stroke-width="10" mask="url(#path-55-inside-1)"/>
<path d="M126 120L123.245 123.354C118.033 129.699 117.51 138.682 121.95 145.589L127.375 154.028C136.525 168.261 140.619 185.158 139 202C144.724 198.82 148.813 193.342 150.233 186.95L151 183.5C156.455 192.164 158.947 202.532 157.928 212.719L155.847 233.535C155.784 234.161 156.649 234.388 156.903 233.812L157.398 232.687C159.726 227.396 163.83 223.085 169 220.5L173 252V256.665C173 271.606 167.065 285.935 156.5 296.5C144.229 306.833 128.703 312.5 112.661 312.5H96C69.7875 311.335 47.9897 291.936 43.7897 266.036L43.2704 262.834C40.5215 245.883 44.1553 228.514 53.4692 214.087L55.1486 211.486C61.2181 202.084 64.0689 190.964 63.2716 179.802L63 176L66.7451 178.675C68.862 180.187 71.3985 181 74 181C78.3128 153.275 97.4725 130.143 123.91 120.743L126 120Z" fill="#FFCF44"/>
<path d="M122.873 172L120.726 174.262C116.857 178.335 116.48 184.601 119.83 189.11L124.412 195.275C131.08 204.248 134.101 215.414 132.866 226.525C137.252 224.417 140.483 220.479 141.693 215.766L142.09 214.223C146.291 219.996 148.168 227.137 147.348 234.229L145.797 247.644C145.748 248.076 146.334 248.253 146.531 247.866L146.739 247.457C148.702 243.598 151.951 240.545 155.925 238.826L158.761 258.141C158.92 259.227 159 260.322 159 261.419V261.62C159 272.27 154.371 282.394 146.317 289.361C136.826 296.275 125.386 300 113.644 300H99.8134L95.6865 299.841C77.8673 299.156 62.8926 286.234 59.607 268.707C57.308 256.442 60.2458 243.776 67.7088 233.775L68.4421 232.793C73.0549 226.611 75.2505 218.958 74.6158 211.271L74.4478 209.236L77.2128 210.945C78.9227 212.001 80.893 212.561 82.903 212.561C86.2075 194.184 99.4957 179.19 117.342 173.701L122.873 172Z" fill="#F5A63C"/>
<path d="M103.082 225L103.964 226.095C105.644 228.181 105.813 231.104 104.385 233.369L102.666 236.097C99.7107 240.785 98.3903 246.319 98.9104 251.836C97.0727 250.795 95.7654 249.02 95.3157 246.957L95.0597 245.782C93.2903 248.648 92.5101 252.015 92.8388 255.368L93.5033 262.145C93.5233 262.349 93.2407 262.422 93.1594 262.233L92.9923 261.846C92.2545 260.136 90.9428 258.737 89.2836 257.891L88 268.2V269.801C88 274.648 89.901 279.302 93.2948 282.764C97.2288 286.142 102.243 288 107.429 288H112.709C121.116 287.619 128.098 281.381 129.419 273.07L129.648 271.633C130.519 266.151 129.362 260.54 126.393 255.85L125.819 254.943C123.869 251.862 122.955 248.238 123.209 244.6L123.299 243.327L122.09 244.208C121.415 244.699 120.603 244.964 119.769 244.964C118.384 235.885 112.151 228.288 103.517 225.158L103.082 225Z" fill="#FF7637"/>
<path opacity="0.2" d="M47.3616 155.281C47.3616 176.82 48.8845 193.28 43.3616 193.28C37.8388 193.28 28.3616 182.819 28.3616 161.28C28.3616 139.741 26.3388 116.28 31.8616 116.28C55.3616 105.781 47.3616 133.741 47.3616 155.281Z" fill="white"/>
<path opacity="0.2" d="M49.9014 227.191C49.9014 239.145 51.5955 248.28 45.4514 248.28C39.3072 248.28 28.7639 242.475 28.7639 230.521C28.7639 218.567 32.7175 204.28 38.8616 204.28C51.8616 204.281 49.9014 215.237 49.9014 227.191Z" fill="white"/>
<defs>
<filter id="filter0_d" x="160" y="34" width="22" height="67" filterUnits="userSpaceOnUse" color-interpolation-filters="sRGB">
<feFlood flood-opacity="0" result="BackgroundImageFix"/>
<feColorMatrix in="SourceAlpha" type="matrix" values="0 0 0 0 0 0 0 0 0 0 0 0 0 0 0 0 0 0 127 0" result="hardAlpha"/>
<feOffset dy="4"/>
<feGaussianBlur stdDeviation="2.5"/>
<feComposite in2="hardAlpha" operator="out"/>
<feColorMatrix type="matrix" values="0 0 0 0 0 0 0 0 0 0 0 0 0 0 0 0 0 0 0.25 0"/>
<feBlend mode="normal" in2="BackgroundImageFix" result="effect1_dropShadow"/>
<feBlend mode="normal" in="SourceGraphic" in2="effect1_dropShadow" result="shape"/>
</filter>
<filter id="filter1_d" x="140" y="34" width="22" height="67" filterUnits="userSpaceOnUse" color-interpolation-filters="sRGB">
<feFlood flood-opacity="0" result="BackgroundImageFix"/>
<feColorMatrix in="SourceAlpha" type="matrix" values="0 0 0 0 0 0 0 0 0 0 0 0 0 0 0 0 0 0 127 0" result="hardAlpha"/>
<feOffset dy="4"/>
<feGaussianBlur stdDeviation="2.5"/>
<feComposite in2="hardAlpha" operator="out"/>
<feColorMatrix type="matrix" values="0 0 0 0 0 0 0 0 0 0 0 0 0 0 0 0 0 0 0.25 0"/>
<feBlend mode="normal" in2="BackgroundImageFix" result="effect1_dropShadow"/>
<feBlend mode="normal" in="SourceGraphic" in2="effect1_dropShadow" result="shape"/>
</filter>
<filter id="filter2_d" x="126" y="34" width="22" height="67" filterUnits="userSpaceOnUse" color-interpolation-filters="sRGB">
<feFlood flood-opacity="0" result="BackgroundImageFix"/>
<feColorMatrix in="SourceAlpha" type="matrix" values="0 0 0 0 0 0 0 0 0 0 0 0 0 0 0 0 0 0 127 0" result="hardAlpha"/>
<feOffset dy="4"/>
<feGaussianBlur stdDeviation="2.5"/>
<feComposite in2="hardAlpha" operator="out"/>
<feColorMatrix type="matrix" values="0 0 0 0 0 0 0 0 0 0 0 0 0 0 0 0 0 0 0.25 0"/>
<feBlend mode="normal" in2="BackgroundImageFix" result="effect1_dropShadow"/>
<feBlend mode="normal" in="SourceGraphic" in2="effect1_dropShadow" result="shape"/>
</filter>
<filter id="filter3_d" x="103" y="34" width="22" height="67" filterUnits="userSpaceOnUse" color-interpolation-filters="sRGB">
<feFlood flood-opacity="0" result="BackgroundImageFix"/>
<feColorMatrix in="SourceAlpha" type="matrix" values="0 0 0 0 0 0 0 0 0 0 0 0 0 0 0 0 0 0 127 0" result="hardAlpha"/>
<feOffset dy="4"/>
<feGaussianBlur stdDeviation="2.5"/>
<feComposite in2="hardAlpha" operator="out"/>
<feColorMatrix type="matrix" values="0 0 0 0 0 0 0 0 0 0 0 0 0 0 0 0 0 0 0.25 0"/>
<feBlend mode="normal" in2="BackgroundImageFix" result="effect1_dropShadow"/>
<feBlend mode="normal" in="SourceGraphic" in2="effect1_dropShadow" result="shape"/>
</filter>
<filter id="filter4_d" x="90" y="34" width="22" height="67" filterUnits="userSpaceOnUse" color-interpolation-filters="sRGB">
<feFlood flood-opacity="0" result="BackgroundImageFix"/>
<feColorMatrix in="SourceAlpha" type="matrix" values="0 0 0 0 0 0 0 0 0 0 0 0 0 0 0 0 0 0 127 0" result="hardAlpha"/>
<feOffset dy="4"/>
<feGaussianBlur stdDeviation="2.5"/>
<feComposite in2="hardAlpha" operator="out"/>
<feColorMatrix type="matrix" values="0 0 0 0 0 0 0 0 0 0 0 0 0 0 0 0 0 0 0.25 0"/>
<feBlend mode="normal" in2="BackgroundImageFix" result="effect1_dropShadow"/>
<feBlend mode="normal" in="SourceGraphic" in2="effect1_dropShadow" result="shape"/>
</filter>
<filter id="filter5_d" x="67" y="34" width="22" height="67" filterUnits="userSpaceOnUse" color-interpolation-filters="sRGB">
<feFlood flood-opacity="0" result="BackgroundImageFix"/>
<feColorMatrix in="SourceAlpha" type="matrix" values="0 0 0 0 0 0 0 0 0 0 0 0 0 0 0 0 0 0 127 0" result="hardAlpha"/>
<feOffset dy="4"/>
<feGaussianBlur stdDeviation="2.5"/>
<feComposite in2="hardAlpha" operator="out"/>
<feColorMatrix type="matrix" values="0 0 0 0 0 0 0 0 0 0 0 0 0 0 0 0 0 0 0.25 0"/>
<feBlend mode="normal" in2="BackgroundImageFix" result="effect1_dropShadow"/>
<feBlend mode="normal" in="SourceGraphic" in2="effect1_dropShadow" result="shape"/>
</filter>
<filter id="filter6_d" x="67" y="34" width="22" height="67" filterUnits="userSpaceOnUse" color-interpolation-filters="sRGB">
<feFlood flood-opacity="0" result="BackgroundImageFix"/>
<feColorMatrix in="SourceAlpha" type="matrix" values="0 0 0 0 0 0 0 0 0 0 0 0 0 0 0 0 0 0 127 0" result="hardAlpha"/>
<feOffset dy="4"/>
<feGaussianBlur stdDeviation="2.5"/>
<feComposite in2="hardAlpha" operator="out"/>
<feColorMatrix type="matrix" values="0 0 0 0 0 0 0 0 0 0 0 0 0 0 0 0 0 0 0.25 0"/>
<feBlend mode="normal" in2="BackgroundImageFix" result="effect1_dropShadow"/>
<feBlend mode="normal" in="SourceGraphic" in2="effect1_dropShadow" result="shape"/>
</filter>
<filter id="filter7_d" x="48" y="34" width="22" height="67" filterUnits="userSpaceOnUse" color-interpolation-filters="sRGB">
<feFlood flood-opacity="0" result="BackgroundImageFix"/>
<feColorMatrix in="SourceAlpha" type="matrix" values="0 0 0 0 0 0 0 0 0 0 0 0 0 0 0 0 0 0 127 0" result="hardAlpha"/>
<feOffset dy="4"/>
<feGaussianBlur stdDeviation="2.5"/>
<feComposite in2="hardAlpha" operator="out"/>
<feColorMatrix type="matrix" values="0 0 0 0 0 0 0 0 0 0 0 0 0 0 0 0 0 0 0.25 0"/>
<feBlend mode="normal" in2="BackgroundImageFix" result="effect1_dropShadow"/>
<feBlend mode="normal" in="SourceGraphic" in2="effect1_dropShadow" result="shape"/>
</filter>
<filter id="filter8_d" x="34" y="34" width="22" height="67" filterUnits="userSpaceOnUse" color-interpolation-filters="sRGB">
<feFlood flood-opacity="0" result="BackgroundImageFix"/>
<feColorMatrix in="SourceAlpha" type="matrix" values="0 0 0 0 0 0 0 0 0 0 0 0 0 0 0 0 0 0 127 0" result="hardAlpha"/>
<feOffset dy="4"/>
<feGaussianBlur stdDeviation="2.5"/>
<feComposite in2="hardAlpha" operator="out"/>
<feColorMatrix type="matrix" values="0 0 0 0 0 0 0 0 0 0 0 0 0 0 0 0 0 0 0.25 0"/>
<feBlend mode="normal" in2="BackgroundImageFix" result="effect1_dropShadow"/>
<feBlend mode="normal" in="SourceGraphic" in2="effect1_dropShadow" result="shape"/>
</filter>
<filter id="filter9_d" x="16" y="34" width="22" height="67" filterUnits="userSpaceOnUse" color-interpolation-filters="sRGB">
<feFlood flood-opacity="0" result="BackgroundImageFix"/>
<feColorMatrix in="SourceAlpha" type="matrix" values="0 0 0 0 0 0 0 0 0 0 0 0 0 0 0 0 0 0 127 0" result="hardAlpha"/>
<feOffset dy="4"/>
<feGaussianBlur stdDeviation="2.5"/>
<feComposite in2="hardAlpha" operator="out"/>
<feColorMatrix type="matrix" values="0 0 0 0 0 0 0 0 0 0 0 0 0 0 0 0 0 0 0.25 0"/>
<feBlend mode="normal" in2="BackgroundImageFix" result="effect1_dropShadow"/>
<feBlend mode="normal" in="SourceGraphic" in2="effect1_dropShadow" result="shape"/>
</filter>
<filter id="filter10_d" x="28" y="6" width="34" height="45.488" filterUnits="userSpaceOnUse" color-interpolation-filters="sRGB">
<feFlood flood-opacity="0" result="BackgroundImageFix"/>
<feColorMatrix in="SourceAlpha" type="matrix" values="0 0 0 0 0 0 0 0 0 0 0 0 0 0 0 0 0 0 127 0" result="hardAlpha"/>
<feOffset/>
<feGaussianBlur stdDeviation="3"/>
<feComposite in2="hardAlpha" operator="out"/>
<feColorMatrix type="matrix" values="0 0 0 0 0 0 0 0 0 0 0 0 0 0 0 0 0 0 0.25 0"/>
<feBlend mode="normal" in2="BackgroundImageFix" result="effect1_dropShadow"/>
<feBlend mode="normal" in="SourceGraphic" in2="effect1_dropShadow" result="shape"/>
</filter>
<filter id="filter11_d" x="42" y="6" width="34" height="45.6953" filterUnits="userSpaceOnUse" color-interpolation-filters="sRGB">
<feFlood flood-opacity="0" result="BackgroundImageFix"/>
<feColorMatrix in="SourceAlpha" type="matrix" values="0 0 0 0 0 0 0 0 0 0 0 0 0 0 0 0 0 0 127 0" result="hardAlpha"/>
<feOffset/>
<feGaussianBlur stdDeviation="3"/>
<feComposite in2="hardAlpha" operator="out"/>
<feColorMatrix type="matrix" values="0 0 0 0 0 0 0 0 0 0 0 0 0 0 0 0 0 0 0.25 0"/>
<feBlend mode="normal" in2="BackgroundImageFix" result="effect1_dropShadow"/>
<feBlend mode="normal" in="SourceGraphic" in2="effect1_dropShadow" result="shape"/>
</filter>
<filter id="filter12_d" x="120" y="6" width="34" height="45.6953" filterUnits="userSpaceOnUse" color-interpolation-filters="sRGB">
<feFlood flood-opacity="0" result="BackgroundImageFix"/>
<feColorMatrix in="SourceAlpha" type="matrix" values="0 0 0 0 0 0 0 0 0 0 0 0 0 0 0 0 0 0 127 0" result="hardAlpha"/>
<feOffset/>
<feGaussianBlur stdDeviation="3"/>
<feComposite in2="hardAlpha" operator="out"/>
<feColorMatrix type="matrix" values="0 0 0 0 0 0 0 0 0 0 0 0 0 0 0 0 0 0 0.25 0"/>
<feBlend mode="normal" in2="BackgroundImageFix" result="effect1_dropShadow"/>
<feBlend mode="normal" in="SourceGraphic" in2="effect1_dropShadow" result="shape"/>
</filter>
<filter id="filter13_d" x="153" y="5" width="34" height="45.6953" filterUnits="userSpaceOnUse" color-interpolation-filters="sRGB">
<feFlood flood-opacity="0" result="BackgroundImageFix"/>
<feColorMatrix in="SourceAlpha" type="matrix" values="0 0 0 0 0 0 0 0 0 0 0 0 0 0 0 0 0 0 127 0" result="hardAlpha"/>
<feOffset/>
<feGaussianBlur stdDeviation="3"/>
<feComposite in2="hardAlpha" operator="out"/>
<feColorMatrix type="matrix" values="0 0 0 0 0 0 0 0 0 0 0 0 0 0 0 0 0 0 0.25 0"/>
<feBlend mode="normal" in2="BackgroundImageFix" result="effect1_dropShadow"/>
<feBlend mode="normal" in="SourceGraphic" in2="effect1_dropShadow" result="shape"/>
</filter>
<filter id="filter14_d" x="61" y="6" width="34" height="45.6953" filterUnits="userSpaceOnUse" color-interpolation-filters="sRGB">
<feFlood flood-opacity="0" result="BackgroundImageFix"/>
<feColorMatrix in="SourceAlpha" type="matrix" values="0 0 0 0 0 0 0 0 0 0 0 0 0 0 0 0 0 0 127 0" result="hardAlpha"/>
<feOffset/>
<feGaussianBlur stdDeviation="3"/>
<feComposite in2="hardAlpha" operator="out"/>
<feColorMatrix type="matrix" values="0 0 0 0 0 0 0 0 0 0 0 0 0 0 0 0 0 0 0.25 0"/>
<feBlend mode="normal" in2="BackgroundImageFix" result="effect1_dropShadow"/>
<feBlend mode="normal" in="SourceGraphic" in2="effect1_dropShadow" result="shape"/>
</filter>
<filter id="filter15_d" x="134" y="5" width="34" height="45.6953" filterUnits="userSpaceOnUse" color-interpolation-filters="sRGB">
<feFlood flood-opacity="0" result="BackgroundImageFix"/>
<feColorMatrix in="SourceAlpha" type="matrix" values="0 0 0 0 0 0 0 0 0 0 0 0 0 0 0 0 0 0 127 0" result="hardAlpha"/>
<feOffset/>
<feGaussianBlur stdDeviation="3"/>
<feComposite in2="hardAlpha" operator="out"/>
<feColorMatrix type="matrix" values="0 0 0 0 0 0 0 0 0 0 0 0 0 0 0 0 0 0 0.25 0"/>
<feBlend mode="normal" in2="BackgroundImageFix" result="effect1_dropShadow"/>
<feBlend mode="normal" in="SourceGraphic" in2="effect1_dropShadow" result="shape"/>
</filter>
<filter id="filter16_d" x="83" y="6" width="34" height="45.6953" filterUnits="userSpaceOnUse" color-interpolation-filters="sRGB">
<feFlood flood-opacity="0" result="BackgroundImageFix"/>
<feColorMatrix in="SourceAlpha" type="matrix" values="0 0 0 0 0 0 0 0 0 0 0 0 0 0 0 0 0 0 127 0" result="hardAlpha"/>
<feOffset/>
<feGaussianBlur stdDeviation="3"/>
<feComposite in2="hardAlpha" operator="out"/>
<feColorMatrix type="matrix" values="0 0 0 0 0 0 0 0 0 0 0 0 0 0 0 0 0 0 0.25 0"/>
<feBlend mode="normal" in2="BackgroundImageFix" result="effect1_dropShadow"/>
<feBlend mode="normal" in="SourceGraphic" in2="effect1_dropShadow" result="shape"/>
</filter>
<filter id="filter17_d" x="97" y="6" width="34" height="45.6953" filterUnits="userSpaceOnUse" color-interpolation-filters="sRGB">
<feFlood flood-opacity="0" result="BackgroundImageFix"/>
<feColorMatrix in="SourceAlpha" type="matrix" values="0 0 0 0 0 0 0 0 0 0 0 0 0 0 0 0 0 0 127 0" result="hardAlpha"/>
<feOffset/>
<feGaussianBlur stdDeviation="3"/>
<feComposite in2="hardAlpha" operator="out"/>
<feColorMatrix type="matrix" values="0 0 0 0 0 0 0 0 0 0 0 0 0 0 0 0 0 0 0.25 0"/>
<feBlend mode="normal" in2="BackgroundImageFix" result="effect1_dropShadow"/>
<feBlend mode="normal" in="SourceGraphic" in2="effect1_dropShadow" result="shape"/>
</filter>
<filter id="filter18_d" x="11" y="6" width="34" height="45.488" filterUnits="userSpaceOnUse" color-interpolation-filters="sRGB">
<feFlood flood-opacity="0" result="BackgroundImageFix"/>
<feColorMatrix in="SourceAlpha" type="matrix" values="0 0 0 0 0 0 0 0 0 0 0 0 0 0 0 0 0 0 127 0" result="hardAlpha"/>
<feOffset/>
<feGaussianBlur stdDeviation="3"/>
<feComposite in2="hardAlpha" operator="out"/>
<feColorMatrix type="matrix" values="0 0 0 0 0 0 0 0 0 0 0 0 0 0 0 0 0 0 0.25 0"/>
<feBlend mode="normal" in2="BackgroundImageFix" result="effect1_dropShadow"/>
<feBlend mode="normal" in="SourceGraphic" in2="effect1_dropShadow" result="shape"/>
</filter>
<linearGradient id="paint0_linear" x1="176.5" y1="64" x2="165" y2="64" gradientUnits="userSpaceOnUse">
<stop stop-color="#FFE49E"/>
<stop offset="0.526042" stop-color="#F4D790"/>
<stop offset="1" stop-color="#D4AA54"/>
<stop offset="1" stop-color="#775B22"/>
</linearGradient>
<linearGradient id="paint1_linear" x1="156.5" y1="64" x2="145" y2="64" gradientUnits="userSpaceOnUse">
<stop stop-color="#FFE49E"/>
<stop offset="0.526042" stop-color="#F4D790"/>
<stop offset="1" stop-color="#D4AA54"/>
<stop offset="1" stop-color="#775B22"/>
</linearGradient>
<linearGradient id="paint2_linear" x1="142.5" y1="64" x2="131" y2="64" gradientUnits="userSpaceOnUse">
<stop stop-color="#FFE49E"/>
<stop offset="0.526042" stop-color="#F4D790"/>
<stop offset="1" stop-color="#D4AA54"/>
<stop offset="1" stop-color="#775B22"/>
</linearGradient>
<linearGradient id="paint3_linear" x1="119.5" y1="64" x2="108" y2="64" gradientUnits="userSpaceOnUse">
<stop stop-color="#FFE49E"/>
<stop offset="0.526042" stop-color="#F4D790"/>
<stop offset="1" stop-color="#D4AA54"/>
<stop offset="1" stop-color="#775B22"/>
</linearGradient>
<linearGradient id="paint4_linear" x1="106.5" y1="64" x2="95" y2="64" gradientUnits="userSpaceOnUse">
<stop stop-color="#FFE49E"/>
<stop offset="0.526042" stop-color="#F4D790"/>
<stop offset="1" stop-color="#D4AA54"/>
<stop offset="1" stop-color="#775B22"/>
</linearGradient>
<linearGradient id="paint5_linear" x1="83.5" y1="64" x2="72" y2="64" gradientUnits="userSpaceOnUse">
<stop stop-color="#FFE49E"/>
<stop offset="0.526042" stop-color="#F4D790"/>
<stop offset="1" stop-color="#D4AA54"/>
<stop offset="1" stop-color="#775B22"/>
</linearGradient>
<linearGradient id="paint6_linear" x1="83.5" y1="64" x2="72" y2="64" gradientUnits="userSpaceOnUse">
<stop stop-color="#FFE49E"/>
<stop offset="0.526042" stop-color="#F4D790"/>
<stop offset="1" stop-color="#D4AA54"/>
<stop offset="1" stop-color="#775B22"/>
</linearGradient>
<linearGradient id="paint7_linear" x1="64.5" y1="64" x2="53" y2="64" gradientUnits="userSpaceOnUse">
<stop stop-color="#FFE49E"/>
<stop offset="0.526042" stop-color="#F4D790"/>
<stop offset="1" stop-color="#D4AA54"/>
<stop offset="1" stop-color="#775B22"/>
</linearGradient>
<linearGradient id="paint8_linear" x1="50.5" y1="64" x2="39" y2="64" gradientUnits="userSpaceOnUse">
<stop stop-color="#FFE49E"/>
<stop offset="0.526042" stop-color="#F4D790"/>
<stop offset="1" stop-color="#D4AA54"/>
<stop offset="1" stop-color="#775B22"/>
</linearGradient>
<linearGradient id="paint9_linear" x1="32.5" y1="64" x2="21" y2="64" gradientUnits="userSpaceOnUse">
<stop stop-color="#FFE49E"/>
<stop offset="0.526042" stop-color="#F4D790"/>
<stop offset="1" stop-color="#D4AA54"/>
<stop offset="1" stop-color="#775B22"/>
</linearGradient>
</defs>
</svg>
